<mxfile host="app.diagrams.net" modified="2021-10-25T02:37:35.583Z" agent="5.0 (Windows NT 10.0; Win64; x64) AppleWebKit/537.36 (KHTML, like Gecko) Chrome/95.0.4638.54 Safari/537.36" etag="OJJ9bm2d6cXNEGatnrFh" version="15.5.9" type="github" pages="3">
  <diagram id="42Ei3U5lBQQJYCCdeaAZ" name="Concrete Example">
    <mxGraphModel dx="2060" dy="702" grid="0" gridSize="10" guides="1" tooltips="1" connect="1" arrows="1" fold="1" page="0" pageScale="1" pageWidth="850" pageHeight="1100" math="0" shadow="0">
      <root>
        <mxCell id="0" />
        <mxCell id="1" parent="0" />
        <mxCell id="eoG6C2mPOc9z2Y3OGJGd-28" value="" style="shape=image;verticalLabelPosition=bottom;labelBackgroundColor=#ffffff;verticalAlign=top;aspect=fixed;imageAspect=0;image=https://www.ginx.tv/uploads/Banner_images/Fortnite_Chapter_2_Season_2_Skins/Rainbow_Six_Siege_Year_5_pass_around_the_world_premium_track.png;" parent="1" vertex="1">
          <mxGeometry x="-602" y="641" width="694.85" height="306" as="geometry" />
        </mxCell>
        <mxCell id="eoG6C2mPOc9z2Y3OGJGd-26" value="" style="shape=image;verticalLabelPosition=bottom;labelBackgroundColor=#ffffff;verticalAlign=top;aspect=fixed;imageAspect=0;image=https://fiverr-res.cloudinary.com/images/t_main1,q_auto,f_auto,q_auto,f_auto/gigs/157371603/original/f3666c2b3f8b3cfeba2bae4cbb95df37c1511df2/help-any-r6-siege-smurf-throw-to-a-lower-rank-on-pc.jpeg;" parent="1" vertex="1">
          <mxGeometry x="205.42000000000002" y="730" width="342.52" height="193" as="geometry" />
        </mxCell>
        <mxCell id="eoG6C2mPOc9z2Y3OGJGd-18" value="" style="rounded=0;whiteSpace=wrap;html=1;verticalAlign=top;spacingTop=18;spacingLeft=0;align=left;" parent="1" vertex="1">
          <mxGeometry x="380" y="990" width="164.36" height="140" as="geometry" />
        </mxCell>
        <mxCell id="QmTwxcSAXKt4TzASz7lI-1" value="Monster Hunter" style="rounded=0;whiteSpace=wrap;html=1;" parent="1" vertex="1">
          <mxGeometry x="204.36" y="400" width="320" height="60" as="geometry" />
        </mxCell>
        <mxCell id="eoG6C2mPOc9z2Y3OGJGd-1" value="" style="rounded=0;whiteSpace=wrap;html=1;verticalAlign=top;spacingTop=18;spacingLeft=0;align=left;" parent="1" vertex="1">
          <mxGeometry x="204.36" y="460" width="160" height="140" as="geometry" />
        </mxCell>
        <mxCell id="eoG6C2mPOc9z2Y3OGJGd-3" value="&lt;b&gt;&lt;u&gt;Internal&lt;/u&gt;&lt;/b&gt;" style="text;html=1;strokeColor=none;fillColor=none;align=center;verticalAlign=middle;whiteSpace=wrap;rounded=0;" parent="1" vertex="1">
          <mxGeometry x="264.36" y="470" width="40" height="20" as="geometry" />
        </mxCell>
        <mxCell id="eoG6C2mPOc9z2Y3OGJGd-5" value="" style="shape=image;verticalLabelPosition=bottom;labelBackgroundColor=#ffffff;verticalAlign=top;aspect=fixed;imageAspect=0;image=https://pbs.twimg.com/media/EcQMW22XYAYqeDo.jpg;" parent="1" vertex="1">
          <mxGeometry x="555" y="7" width="230" height="230" as="geometry" />
        </mxCell>
        <mxCell id="eoG6C2mPOc9z2Y3OGJGd-6" value="" style="shape=image;verticalLabelPosition=bottom;labelBackgroundColor=#ffffff;verticalAlign=top;aspect=fixed;imageAspect=0;image=https://www.monsterhunter.com/wp-content/uploads/2021/02/SP_MHWI.jpg;" parent="1" vertex="1">
          <mxGeometry x="203.3" y="100" width="322.12" height="280" as="geometry" />
        </mxCell>
        <mxCell id="eoG6C2mPOc9z2Y3OGJGd-40" style="edgeStyle=orthogonalEdgeStyle;curved=1;rounded=0;orthogonalLoop=1;jettySize=auto;html=1;strokeWidth=5;" parent="1" source="eoG6C2mPOc9z2Y3OGJGd-7" edge="1">
          <mxGeometry relative="1" as="geometry">
            <mxPoint x="-447" y="840" as="targetPoint" />
          </mxGeometry>
        </mxCell>
        <mxCell id="eoG6C2mPOc9z2Y3OGJGd-56" value="&lt;font style=&quot;font-size: 17px&quot;&gt;Dragons defeated are included in &lt;br&gt;kill count for community challenge&lt;/font&gt;" style="edgeLabel;html=1;align=center;verticalAlign=middle;resizable=0;points=[];" parent="eoG6C2mPOc9z2Y3OGJGd-40" vertex="1" connectable="0">
          <mxGeometry x="-0.4194" y="21" relative="1" as="geometry">
            <mxPoint as="offset" />
          </mxGeometry>
        </mxCell>
        <mxCell id="eoG6C2mPOc9z2Y3OGJGd-7" value="- Elder Dragons defeated" style="text;html=1;strokeColor=none;fillColor=none;align=left;verticalAlign=middle;whiteSpace=wrap;rounded=0;" parent="1" vertex="1">
          <mxGeometry x="214.36" y="505" width="140" height="20" as="geometry" />
        </mxCell>
        <mxCell id="eoG6C2mPOc9z2Y3OGJGd-9" value="" style="rounded=0;whiteSpace=wrap;html=1;verticalAlign=top;spacingTop=18;spacingLeft=0;align=left;" parent="1" vertex="1">
          <mxGeometry x="364.36" y="460" width="160" height="140" as="geometry" />
        </mxCell>
        <mxCell id="eoG6C2mPOc9z2Y3OGJGd-10" value="&lt;b&gt;&lt;u&gt;External&lt;/u&gt;&lt;/b&gt;" style="text;html=1;strokeColor=none;fillColor=none;align=center;verticalAlign=middle;whiteSpace=wrap;rounded=0;" parent="1" vertex="1">
          <mxGeometry x="424.36" y="470" width="40" height="20" as="geometry" />
        </mxCell>
        <mxCell id="eoG6C2mPOc9z2Y3OGJGd-11" value="- Holiday Event Calendar" style="text;html=1;strokeColor=none;fillColor=none;align=left;verticalAlign=middle;whiteSpace=wrap;rounded=0;" parent="1" vertex="1">
          <mxGeometry x="374.36" y="505" width="140" height="20" as="geometry" />
        </mxCell>
        <mxCell id="eoG6C2mPOc9z2Y3OGJGd-12" value="- Universal Shop (NFT)" style="text;html=1;strokeColor=none;fillColor=none;align=left;verticalAlign=middle;whiteSpace=wrap;rounded=0;" parent="1" vertex="1">
          <mxGeometry x="374.36" y="550" width="140" height="20" as="geometry" />
        </mxCell>
        <mxCell id="eoG6C2mPOc9z2Y3OGJGd-13" value="Rainbow Six Siege" style="rounded=0;whiteSpace=wrap;html=1;" parent="1" vertex="1">
          <mxGeometry x="203" y="930" width="341.36" height="60" as="geometry" />
        </mxCell>
        <mxCell id="eoG6C2mPOc9z2Y3OGJGd-14" value="" style="rounded=0;whiteSpace=wrap;html=1;verticalAlign=top;spacingTop=18;spacingLeft=0;align=left;" parent="1" vertex="1">
          <mxGeometry x="203.3" y="990" width="176.7" height="140" as="geometry" />
        </mxCell>
        <mxCell id="eoG6C2mPOc9z2Y3OGJGd-15" value="&lt;b&gt;&lt;u&gt;Internal&lt;/u&gt;&lt;/b&gt;" style="text;html=1;strokeColor=none;fillColor=none;align=center;verticalAlign=middle;whiteSpace=wrap;rounded=0;" parent="1" vertex="1">
          <mxGeometry x="284.36" y="1000" width="40" height="20" as="geometry" />
        </mxCell>
        <mxCell id="eoG6C2mPOc9z2Y3OGJGd-16" value="- Community Event Progress" style="text;html=1;strokeColor=none;fillColor=none;align=left;verticalAlign=middle;whiteSpace=wrap;rounded=0;" parent="1" vertex="1">
          <mxGeometry x="206.48000000000002" y="1035" width="158.94" height="20" as="geometry" />
        </mxCell>
        <mxCell id="eoG6C2mPOc9z2Y3OGJGd-17" value="- Charms Catalog" style="text;html=1;strokeColor=none;fillColor=none;align=left;verticalAlign=middle;whiteSpace=wrap;rounded=0;" parent="1" vertex="1">
          <mxGeometry x="420" y="1035" width="100" height="20" as="geometry" />
        </mxCell>
        <mxCell id="eoG6C2mPOc9z2Y3OGJGd-19" value="&lt;b&gt;&lt;u&gt;External&lt;/u&gt;&lt;/b&gt;" style="text;html=1;strokeColor=none;fillColor=none;align=center;verticalAlign=middle;whiteSpace=wrap;rounded=0;" parent="1" vertex="1">
          <mxGeometry x="444.36" y="1000" width="40" height="20" as="geometry" />
        </mxCell>
        <mxCell id="eoG6C2mPOc9z2Y3OGJGd-23" value="- Current Esport Season" style="text;html=1;strokeColor=none;fillColor=none;align=left;verticalAlign=middle;whiteSpace=wrap;rounded=0;" parent="1" vertex="1">
          <mxGeometry x="206.48000000000002" y="1065" width="140" height="20" as="geometry" />
        </mxCell>
        <mxCell id="eoG6C2mPOc9z2Y3OGJGd-25" value="" style="shape=image;verticalLabelPosition=bottom;labelBackgroundColor=#ffffff;verticalAlign=top;aspect=fixed;imageAspect=0;image=https://i.redd.it/p29rpshm9a351.png;" parent="1" vertex="1">
          <mxGeometry x="599" y="1203" width="520" height="293" as="geometry" />
        </mxCell>
        <mxCell id="eoG6C2mPOc9z2Y3OGJGd-30" value="" style="shape=curlyBracket;whiteSpace=wrap;html=1;rounded=1;align=left;verticalAlign=top;strokeWidth=3;size=0.42857142857142855;fillColor=#d5e8d4;strokeColor=#82b366;" parent="1" vertex="1">
          <mxGeometry x="507" y="410" width="300" height="300" as="geometry" />
        </mxCell>
        <mxCell id="eoG6C2mPOc9z2Y3OGJGd-31" value="Undead Helmet" style="shape=image;verticalLabelPosition=bottom;labelBackgroundColor=#ffffff;verticalAlign=top;aspect=fixed;imageAspect=0;image=https://dcesfovs97zj5.cloudfront.net/img/HDG/OP0032_Lesion/thumbs/HDG_OP0032_Lesion_RISEN_R6Loot.jpg;" parent="1" vertex="1">
          <mxGeometry x="664" y="585" width="95" height="95" as="geometry" />
        </mxCell>
        <mxCell id="eoG6C2mPOc9z2Y3OGJGd-32" style="edgeStyle=orthogonalEdgeStyle;curved=1;rounded=0;orthogonalLoop=1;jettySize=auto;html=1;strokeWidth=5;entryX=0;entryY=0.75;entryDx=0;entryDy=0;" parent="1" source="eoG6C2mPOc9z2Y3OGJGd-13" target="eoG6C2mPOc9z2Y3OGJGd-31" edge="1">
          <mxGeometry relative="1" as="geometry" />
        </mxCell>
        <mxCell id="eoG6C2mPOc9z2Y3OGJGd-33" value="Palico Outfit" style="shape=image;verticalLabelPosition=bottom;labelBackgroundColor=#ffffff;verticalAlign=top;aspect=fixed;imageAspect=0;image=https://227263-694567-raikfcquaxqncofqfm.stackpathdns.com/wp-content/uploads/2020/12/Among-Us-Red-Crewmate.png;" parent="1" vertex="1">
          <mxGeometry x="655" y="423" width="69" height="86.25" as="geometry" />
        </mxCell>
        <mxCell id="eoG6C2mPOc9z2Y3OGJGd-35" style="edgeStyle=orthogonalEdgeStyle;curved=1;rounded=0;orthogonalLoop=1;jettySize=auto;html=1;strokeWidth=5;" parent="1" source="eoG6C2mPOc9z2Y3OGJGd-34" edge="1">
          <mxGeometry relative="1" as="geometry">
            <mxPoint x="732" y="453" as="targetPoint" />
            <Array as="points">
              <mxPoint x="833" y="284" />
              <mxPoint x="833" y="453" />
            </Array>
          </mxGeometry>
        </mxCell>
        <mxCell id="eoG6C2mPOc9z2Y3OGJGd-54" style="edgeStyle=orthogonalEdgeStyle;curved=1;rounded=0;orthogonalLoop=1;jettySize=auto;html=1;entryX=1;entryY=0.5;entryDx=0;entryDy=0;strokeWidth=5;" parent="1" source="eoG6C2mPOc9z2Y3OGJGd-34" target="eoG6C2mPOc9z2Y3OGJGd-11" edge="1">
          <mxGeometry relative="1" as="geometry">
            <Array as="points">
              <mxPoint x="593" y="284" />
              <mxPoint x="593" y="515" />
            </Array>
          </mxGeometry>
        </mxCell>
        <mxCell id="eoG6C2mPOc9z2Y3OGJGd-55" value="Limited-time NFT &lt;br style=&quot;font-size: 17px&quot;&gt;offering" style="edgeLabel;html=1;align=center;verticalAlign=middle;resizable=0;points=[];fontSize=17;" parent="eoG6C2mPOc9z2Y3OGJGd-54" vertex="1" connectable="0">
          <mxGeometry x="-0.1875" y="45" relative="1" as="geometry">
            <mxPoint x="-9" y="5" as="offset" />
          </mxGeometry>
        </mxCell>
        <mxCell id="eoG6C2mPOc9z2Y3OGJGd-34" value="" style="shape=image;verticalLabelPosition=bottom;labelBackgroundColor=#ffffff;verticalAlign=top;aspect=fixed;imageAspect=0;image=https://www.nintendo.com//content/dam/noa/en_US/games/switch/a/among-us-switch/among-us-switch-hero.jpg;" parent="1" vertex="1">
          <mxGeometry x="916" y="193" width="323" height="182" as="geometry" />
        </mxCell>
        <mxCell id="eoG6C2mPOc9z2Y3OGJGd-38" value="" style="shape=curlyBracket;whiteSpace=wrap;html=1;rounded=1;align=left;verticalAlign=top;strokeWidth=3;size=0.42857142857142855;fillColor=#d5e8d4;strokeColor=#82b366;" parent="1" vertex="1">
          <mxGeometry x="520" y="917.5" width="300" height="255" as="geometry" />
        </mxCell>
        <mxCell id="eoG6C2mPOc9z2Y3OGJGd-36" value="Deviljho Charm" style="shape=image;verticalLabelPosition=bottom;labelBackgroundColor=#ffffff;verticalAlign=top;aspect=fixed;imageAspect=0;image=https://m.media-amazon.com/images/I/61pyzQ1yK-L._AC_SL1000_.jpg;" parent="1" vertex="1">
          <mxGeometry x="679" y="947" width="197.67" height="130" as="geometry" />
        </mxCell>
        <mxCell id="eoG6C2mPOc9z2Y3OGJGd-42" style="edgeStyle=orthogonalEdgeStyle;curved=1;rounded=0;orthogonalLoop=1;jettySize=auto;html=1;strokeWidth=5;entryX=0;entryY=0.5;entryDx=0;entryDy=0;" parent="1" target="eoG6C2mPOc9z2Y3OGJGd-16" edge="1">
          <mxGeometry relative="1" as="geometry">
            <mxPoint x="194.48000000000002" y="1053" as="targetPoint" />
            <mxPoint x="-448" y="863" as="sourcePoint" />
            <Array as="points">
              <mxPoint x="-448" y="1045" />
            </Array>
          </mxGeometry>
        </mxCell>
        <mxCell id="eoG6C2mPOc9z2Y3OGJGd-57" value="&lt;font style=&quot;font-size: 17px&quot;&gt;Community challenge succeeds, &lt;br&gt;and all R6 players are rewarded&lt;/font&gt;" style="edgeLabel;html=1;align=center;verticalAlign=middle;resizable=0;points=[];" parent="eoG6C2mPOc9z2Y3OGJGd-42" vertex="1" connectable="0">
          <mxGeometry x="-0.0077" y="33" relative="1" as="geometry">
            <mxPoint as="offset" />
          </mxGeometry>
        </mxCell>
        <mxCell id="eoG6C2mPOc9z2Y3OGJGd-48" value="" style="shape=image;verticalLabelPosition=bottom;labelBackgroundColor=#ffffff;verticalAlign=top;aspect=fixed;imageAspect=0;image=https://www.windowscentral.com/sites/wpcentral.com/files/styles/large/public/field/image/2019/07/monster-hunter-world-iceborne-july-201911.jpg?itok=b5KF6wGK;" parent="1" vertex="1">
          <mxGeometry x="-349.00117647058823" y="71.99941176470585" width="520" height="293" as="geometry" />
        </mxCell>
        <mxCell id="eoG6C2mPOc9z2Y3OGJGd-50" value="" style="shape=image;verticalLabelPosition=bottom;labelBackgroundColor=#ffffff;verticalAlign=top;aspect=fixed;imageAspect=0;image=https://steamuserimages-a.akamaihd.net/ugc/777354267361289655/0A0BFCA03DE470DC4184B5139A0FD4F916946625/?imw=5000&amp;imh=5000&amp;ima=fit&amp;impolicy=Letterbox&amp;imcolor=%23000000&amp;letterbox=false;" parent="1" vertex="1">
          <mxGeometry x="-100" y="1150.6" width="625.42" height="352.4" as="geometry" />
        </mxCell>
        <mxCell id="eoG6C2mPOc9z2Y3OGJGd-39" style="edgeStyle=orthogonalEdgeStyle;curved=1;rounded=0;orthogonalLoop=1;jettySize=auto;html=1;strokeWidth=5;entryX=0.472;entryY=0.005;entryDx=0;entryDy=0;entryPerimeter=0;" parent="1" source="QmTwxcSAXKt4TzASz7lI-1" target="eoG6C2mPOc9z2Y3OGJGd-36" edge="1">
          <mxGeometry relative="1" as="geometry">
            <Array as="points">
              <mxPoint x="571" y="430" />
              <mxPoint x="571" y="815" />
              <mxPoint x="773" y="815" />
            </Array>
          </mxGeometry>
        </mxCell>
        <mxCell id="_Ou25v0zM6MvZYfAcRsS-2" style="edgeStyle=orthogonalEdgeStyle;curved=1;rounded=0;orthogonalLoop=1;jettySize=auto;html=1;strokeWidth=5;entryX=0;entryY=0.5;entryDx=0;entryDy=0;exitX=0;exitY=0.5;exitDx=0;exitDy=0;" parent="1" source="eoG6C2mPOc9z2Y3OGJGd-23" target="QmTwxcSAXKt4TzASz7lI-1" edge="1">
          <mxGeometry relative="1" as="geometry">
            <mxPoint x="216.48000000000002" y="1055" as="targetPoint" />
            <mxPoint x="-438" y="873" as="sourcePoint" />
            <Array as="points">
              <mxPoint x="129" y="1075" />
              <mxPoint x="129" y="430" />
            </Array>
          </mxGeometry>
        </mxCell>
        <mxCell id="_Ou25v0zM6MvZYfAcRsS-3" value="&lt;span style=&quot;font-size: 17px&quot;&gt;Environment changes at the &lt;br&gt;start of each new season.&lt;/span&gt;" style="edgeLabel;html=1;align=center;verticalAlign=middle;resizable=0;points=[];" parent="_Ou25v0zM6MvZYfAcRsS-2" vertex="1" connectable="0">
          <mxGeometry x="-0.0077" y="33" relative="1" as="geometry">
            <mxPoint x="125" y="-92" as="offset" />
          </mxGeometry>
        </mxCell>
      </root>
    </mxGraphModel>
  </diagram>
  <diagram id="DrIZWTWk3-Yn7Wko1fp0" name="Abstract Example">
    <mxGraphModel dx="1422" dy="766" grid="1" gridSize="10" guides="1" tooltips="1" connect="1" arrows="1" fold="1" page="1" pageScale="1" pageWidth="850" pageHeight="1100" math="0" shadow="0">
      <root>
        <mxCell id="dS6MFNq4ixRaRnfDtZMK-0" />
        <mxCell id="dS6MFNq4ixRaRnfDtZMK-1" parent="dS6MFNq4ixRaRnfDtZMK-0" />
      </root>
    </mxGraphModel>
  </diagram>
  <diagram id="lxG4D-XFcV68nyk-q2DG" name="Demo Example">
    <mxGraphModel dx="1422" dy="766" grid="1" gridSize="10" guides="1" tooltips="1" connect="1" arrows="1" fold="1" page="1" pageScale="1" pageWidth="850" pageHeight="1100" math="0" shadow="0">
      <root>
        <mxCell id="U_iIYraNOKkWe-2ufyRg-0" />
        <mxCell id="U_iIYraNOKkWe-2ufyRg-1" parent="U_iIYraNOKkWe-2ufyRg-0" />
      </root>
    </mxGraphModel>
  </diagram>
</mxfile>
